<?xml version="1.0" encoding="UTF-8" standalone="no" ?>
<!DOCTYPE svg PUBLIC "-//W3C//DTD SVG 1.1//EN" "http://www.w3.org/Graphics/SVG/1.1/DTD/svg11.dtd">
<svg xmlns="http://www.w3.org/2000/svg" xmlns:xlink="http://www.w3.org/1999/xlink" version="1.1" width="500" height="500" viewBox="0 0 500 500" xml:space="preserve">
<desc>Created with Fabric.js 4.6.0</desc>
<defs>
</defs>
<g transform="matrix(22.6 0 0 22.6 250.22 255.64)" id="ulOCSWv1XECpQ-ckfYL3l"  >
<linearGradient id="SVGID_1306" gradientUnits="userSpaceOnUse" gradientTransform="matrix(1 0 0 1 9.07 6.5)"  x1="8.881784197001252e-16" y1="0.1269043805096315" x2="4.445737481252373" y2="8.138571590579984">
<stop offset="0%" style="stop-color:#FF1B6B;stop-opacity: 1"/>
<stop offset="100%" style="stop-color:#45CAFF;stop-opacity: 1"/>
</linearGradient>
<path style="stroke: none; stroke-width: 1; stroke-dasharray: none; stroke-linecap: butt; stroke-dashoffset: 0; stroke-linejoin: miter; stroke-miterlimit: 4; fill: url(#SVGID_1306); fill-rule: nonzero; opacity: 1;" vector-effect="non-scaling-stroke"  transform=" translate(-12.01, -12.25)" d="M 10.97 8.265 C 10.760505170182437 8.409022355139262 10.592557972796028 8.605592996844093 10.483 8.835 C 10.289810986671824 9.189680754916996 9.850451744779752 9.327686025005853 9.48915509602681 9.14717241228067 C 9.12785844727387 8.966658799555486 8.974388022261333 8.532459736158586 9.142000000000001 8.165000000000001 C 9.342 7.763000000000001 9.655000000000001 7.339000000000001 10.139000000000001 7.017000000000001 C 10.627 6.69 11.244 6.5 12 6.5 C 12.658 6.5 13.369 6.695 13.934 7.119 C 14.573105963992301 7.586186742252509 14.947082924175529 8.333395688594697 14.937999999999999 9.125 C 14.937999999999999 10.158 14.424999999999999 10.845 13.911 11.34 C 13.721 11.523 13.512 11.698 13.331999999999999 11.847999999999999 L 13.184999999999999 11.970999999999998 C 13.030759657776672 12.097159304586263 12.885414033482402 12.23381760421007 12.749999999999993 12.380000000000003 L 12.749999999999998 13.75 C 12.749999999999998 14.164213562373096 12.414213562373094 14.5 11.999999999999998 14.5 C 11.585786437626902 14.5 11.249999999999998 14.164213562373096 11.249999999999998 13.75 L 11.249999999999998 12.277 C 11.249999999999998 12.04 11.316999999999998 11.773 11.496999999999998 11.540999999999999 C 11.716999999999999 11.261 11.982999999999999 11.024 12.214999999999998 10.826999999999998 L 12.397999999999998 10.673999999999998 L 12.398999999999997 10.672999999999998 C 12.570999999999998 10.529999999999998 12.722999999999997 10.402999999999999 12.868999999999998 10.260999999999997 C 13.236999999999998 9.905999999999997 13.437999999999999 9.584999999999997 13.437999999999999 9.124999999999998 C 13.4469712168931 8.805594078363447 13.295272958638353 8.502948543330461 13.033999999999999 8.318999999999999 C 12.766 8.118 12.384 8 12 8 C 11.506 8 11.186 8.121 10.97 8.265 z M 13 17 C 13 17.552284749830793 12.552284749830793 18 12 18 C 11.447715250169207 18 11 17.552284749830793 11 17 C 11 16.447715250169207 11.447715250169207 16 12 16 C 12.552284749830793 16 13 16.447715250169207 13 17 z" stroke-linecap="round" />
</g>
<g transform="matrix(22.6 0 0 22.6 249.99 249.99)" id="nPTraCm2JA7UM_9t4slBS"  >
<linearGradient id="SVGID_1294" gradientUnits="userSpaceOnUse" gradientTransform="matrix(1 0 0 1 1 1)"  x1="2.886190671950807" y1="2.5154759710896037" x2="18.254666989292886" y2="19.38476282956072">
<stop offset="0%" style="stop-color:#FF1B6B;stop-opacity: 1"/>
<stop offset="100%" style="stop-color:#45CAFF;stop-opacity: 1"/>
</linearGradient>
<path style="stroke: none; stroke-width: 1; stroke-dasharray: none; stroke-linecap: butt; stroke-dashoffset: 0; stroke-linejoin: miter; stroke-miterlimit: 4; fill: url(#SVGID_1294); fill-rule: evenodd; opacity: 1;" vector-effect="non-scaling-stroke"  transform=" translate(-12, -12)" d="M 12 1 C 5.925 1 1 5.925 1 12 C 1 18.075 5.925 23 12 23 C 18.075 23 23 18.075 23 12 C 23 5.925000000000001 18.075 1 12 1 z M 2.5 12 C 2.5 6.7532948766074625 6.7532948766074625 2.5 12 2.5 C 17.246705123392537 2.5 21.5 6.75329487660746 21.5 11.999999999999998 C 21.5 17.246705123392537 17.246705123392537 21.5 12 21.5 C 6.7532948766074625 21.5 2.5 17.246705123392537 2.5 12 z" stroke-linecap="round" />
</g>
</svg>